<?xml version="1.0" encoding="utf-8"?>
<!-- Generator: Adobe Illustrator 16.0.4, SVG Export Plug-In . SVG Version: 6.00 Build 0)  -->
<!DOCTYPE svg PUBLIC "-//W3C//DTD SVG 1.1//EN" "http://www.w3.org/Graphics/SVG/1.1/DTD/svg11.dtd">
<svg version="1.1" id="Ebene_1" xmlns="http://www.w3.org/2000/svg" xmlns:xlink="http://www.w3.org/1999/xlink" x="0px" y="0px"
    width="150px" height="150px" viewBox="0 0 150 150" enable-background="new 0 0 150 150" xml:space="preserve">
    <g>
        <path d="M20.549,15.398c-0.046-2.84-1.283-3.985-4.214-3.985c-2.382,0-3.71,0.87-3.71,2.382c0,0.733,0.321,1.237,0.962,1.649
            c0.733,0.413,0.733,0.413,4.856,2.153c4.168,1.787,5.359,2.382,6.917,3.665c1.97,1.604,3.023,3.802,3.023,6.459
            c0,5.817-4.81,9.482-12.505,9.482c-5.955,0-9.986-1.97-11.818-5.771c-0.778-1.649-0.962-2.565-0.962-5.405h7.467
            c0.32,3.573,1.924,5.039,5.451,5.039c2.565,0,4.123-0.916,4.123-2.519c0-0.917-0.458-1.604-1.512-2.153
            c-0.779-0.458-0.779-0.458-5.13-2.336c-6.596-2.84-8.978-5.313-8.978-9.436c0-5.726,4.626-9.345,11.91-9.345
            c5.497,0,9.253,1.787,10.719,4.993c0.687,1.466,0.87,2.565,0.87,5.13H20.549z"/>
            <path d="M37.724,5.962l4.947,21.804l5.222-21.804h7.1l4.901,21.804l5.451-21.804h7.558l-8.337,30.553h-8.566l-4.672-18.002
                l-4.855,18.002h-8.52L29.57,5.962H37.724z"/>
                <path d="M76.426,36.516V5.962h8.108v30.553H76.426z"/>
                <path d="M106.839,15.398c-0.045-2.84-1.282-3.985-4.214-3.985c-2.382,0-3.71,0.87-3.71,2.382c0,0.733,0.32,1.237,0.962,1.649
                    c0.732,0.413,0.732,0.413,4.855,2.153c4.168,1.787,5.359,2.382,6.917,3.665c1.97,1.604,3.022,3.802,3.022,6.459
                    c0,5.817-4.81,9.482-12.505,9.482c-5.955,0-9.986-1.97-11.818-5.771c-0.778-1.649-0.962-2.565-0.962-5.405h7.467
                    c0.32,3.573,1.924,5.039,5.451,5.039c2.564,0,4.122-0.916,4.122-2.519c0-0.917-0.458-1.604-1.512-2.153
                    c-0.778-0.458-0.778-0.458-5.13-2.336c-6.597-2.84-8.979-5.313-8.979-9.436c0-5.726,4.627-9.345,11.91-9.345
                    c5.497,0,9.253,1.787,10.719,4.993c0.688,1.466,0.87,2.565,0.87,5.13H106.839z"/>
                    <path d="M134.732,15.398c-0.045-2.84-1.282-3.985-4.214-3.985c-2.382,0-3.71,0.87-3.71,2.382c0,0.733,0.32,1.237,0.962,1.649
                        c0.732,0.413,0.732,0.413,4.855,2.153c4.168,1.787,5.359,2.382,6.917,3.665c1.97,1.604,3.022,3.802,3.022,6.459
                        c0,5.817-4.81,9.482-12.505,9.482c-5.955,0-9.986-1.97-11.818-5.771c-0.778-1.649-0.962-2.565-0.962-5.405h7.467
                        c0.32,3.573,1.924,5.039,5.451,5.039c2.565,0,4.122-0.916,4.122-2.519c0-0.917-0.458-1.604-1.512-2.153
                        c-0.778-0.458-0.778-0.458-5.13-2.336c-6.597-2.84-8.979-5.313-8.979-9.436c0-5.726,4.627-9.345,11.91-9.345
                        c5.497,0,9.253,1.787,10.719,4.993c0.688,1.466,0.87,2.565,0.87,5.13H134.732z"/>
                        <path d="M9.968,48.962l9.208,27.622l9.207-27.622h4.214v30.553h-2.611V51.344l-9.482,28.171h-2.611L8.365,51.344v28.171H5.754
                            V48.962H9.968z"/>
                            <path d="M54.9,48.733l10.582,30.782h-2.749l-2.978-8.658H48.029l-3.023,8.658h-2.703l10.582-30.782H54.9z M53.892,52.444
                                l-5.13,16.124h10.215L53.892,52.444z"/>
                                <path d="M79.449,48.962v24.369c0,3.802-0.092,4.581-0.642,5.818c-1.008,2.336-3.573,3.664-7.009,3.664
                                    c-0.137,0-0.504,0-0.916-0.046v-2.29c0.183,0.046,0.367,0.046,0.458,0.046c2.199,0,3.756-0.596,4.581-1.832
                                    c0.732-0.962,0.824-1.695,0.824-5.405V48.962H79.449z"/>
                                    <path d="M113.665,64.216c0,9.299-4.947,15.803-11.956,15.803c-7.191,0-12.047-6.459-12.047-15.987
                                        c0-9.07,5.038-15.574,12.001-15.574C108.718,48.458,113.665,54.963,113.665,64.216z M92.502,64.079
                                        c0,8.016,3.756,13.605,9.161,13.605c5.359,0,9.161-5.589,9.161-13.467c0-7.833-3.802-13.421-9.161-13.421
                                        C96.35,50.795,92.502,56.383,92.502,64.079z"/>
                                        <path d="M125.845,48.962c4.719,0,6.093,0.137,8.108,0.825c3.16,1.008,5.13,3.894,5.13,7.558c0,4.031-2.198,6.779-6.596,8.245
                                            l8.382,13.925h-3.206l-8.199-13.559h-5.681v13.559h-2.61V48.962H125.845z M125.937,63.667c4.031,0,5.039-0.092,6.597-0.641
                                            c2.382-0.825,3.71-2.886,3.71-5.726c0-2.611-1.191-4.535-3.207-5.359c-1.466-0.55-2.702-0.687-7.054-0.687h-2.199v12.414H125.937z"
                                            />
                                            <path d="M16.244,91.963l6.321,21.254l6.229-21.254h10.856v30.553h-7.329v-20.292l-6.276,20.292h-7.283l-6.184-20.292v20.292H5.25
                                                V91.963H16.244z"/>
                                                <path d="M70.704,91.963v17.314c0,5.543-0.504,7.467-2.474,9.757c-2.428,2.749-6.184,4.169-11.04,4.169
                                                    c-5.634,0-9.94-1.97-12.047-5.543c-1.191-1.97-1.512-3.665-1.512-8.383V91.963h8.108v17.59c0,2.977,0.091,3.894,0.549,4.855
                                                    c0.779,1.557,2.611,2.519,4.901,2.519c2.611,0,4.535-1.19,5.13-3.252c0.229-0.778,0.275-1.74,0.275-4.122v-17.59H70.704z"/>
                                                    <path d="M90.9,101.398c-0.045-2.84-1.282-3.985-4.214-3.985c-2.382,0-3.71,0.871-3.71,2.382c0,0.733,0.32,1.237,0.962,1.649
                                                        c0.732,0.412,0.732,0.412,4.855,2.153c4.168,1.786,5.359,2.382,6.917,3.664c1.97,1.604,3.022,3.802,3.022,6.459
                                                        c0,5.817-4.81,9.482-12.505,9.482c-5.955,0-9.986-1.97-11.818-5.772c-0.778-1.648-0.962-2.564-0.962-5.405h7.467
                                                        c0.32,3.573,1.924,5.039,5.451,5.039c2.565,0,4.122-0.916,4.122-2.52c0-0.916-0.458-1.603-1.512-2.152
                                                        c-0.778-0.458-0.778-0.458-5.13-2.336c-6.597-2.841-8.978-5.314-8.978-9.437c0-5.726,4.626-9.345,11.91-9.345
                                                        c5.497,0,9.253,1.786,10.719,4.993c0.688,1.466,0.87,2.564,0.87,5.13H90.9z"/>
                                                        <path d="M101.662,122.516V91.963h8.107v30.553H101.662z"/>
                                                        <path d="M133.496,102.544c-0.504-3.207-2.52-4.993-5.635-4.993c-4.122,0-6.55,3.619-6.55,9.849c0,6.001,2.382,9.527,6.413,9.527
                                                            c3.436,0,5.405-2.152,5.863-6.412h7.466c-0.091,3.526-0.778,5.771-2.519,8.016c-2.383,3.023-6.23,4.673-10.994,4.673
                                                            c-4.306,0-7.833-1.329-10.261-3.803c-2.794-2.84-4.352-7.191-4.352-12.139c0-5.313,1.832-9.895,5.085-12.78
                                                            c2.382-2.106,5.68-3.206,9.665-3.206c4.81,0,8.611,1.604,10.856,4.535c1.465,1.924,2.061,3.756,2.106,6.733H133.496z"/>
                                                        </g>
                                                        <text transform="matrix(1 0 0 1 170.3398 36.5156)"><tspan x="0" y="0" font-family="'CorporateSTOT-ExtBol'" font-size="45.8021">SWISS</tspan><tspan x="0" y="43" font-family="'CorporateSTOT-Lig'" font-size="45.8021">MAJOR</tspan><tspan x="0" y="86" font-family="'CorporateSTOT-ExtBol'" font-size="45.8021" letter-spacing="-2">M</tspan><tspan x="38.703" y="86" font-family="'CorporateSTOT-ExtBol'" font-size="45.8021" letter-spacing="-1">USI</tspan><tspan x="109.694" y="86" font-family="'CorporateSTOT-ExtBol'" font-size="45.8021">C</tspan></text>
                                                        <polygon opacity="0.4" fill="#222221" points="5.25,129.617 73.481,129.617 68.19,135.734 68.19,145.841 5.25,145.841 "/>
                                                        <text transform="matrix(1 0 0 1 9.3384 142.2852)" fill="#FFFFFF" font-family="'CorporateSTOT-Dem'" font-size="12">SMM</text>
                                                        <text transform="matrix(1 0 0 1 38.644 135.874)"><tspan x="0" y="0" fill="#FFFFFF" font-family="'CorporateSTOT-Lig'" font-size="2">made with love in Switzerland, </tspan><tspan x="0" y="3.2" fill="#FFFFFF" font-family="'CorporateSTOT-Lig'" font-size="2">exclusiv from partypeople </tspan><tspan x="0" y="6.4" fill="#FFFFFF" font-family="'CorporateSTOT-Lig'" font-size="2">for all the partypeople</tspan></text>
                                                    </svg>
                                                    
